<svg width="184" height="184" fill="none" xmlns="http://www.w3.org/2000/svg"><g filter="url(#filter0_d)"><path d="M64 16h56a31.998 31.998 0 0132 32v56a31.996 31.996 0 01-9.373 22.627A31.996 31.996 0 01120 136H64a31.997 31.997 0 01-32-32V48a32 32 0 0132-32z" fill="#F6F3FF"/><path d="M87.333 99.082l9.334-3.112v4.92L87.333 104v-4.918zm-4.666-8.283l18.666-6.223v4.918l-18.666 6.223v-4.918z" fill="#923BFE"/><path d="M82.667 73.666l-.042-6.535-1.415-1.374A11.887 11.887 0 0178 57.713c0-4.171 2.538-5.047 4.666-5.047 1.1.018 2.18.302 3.145.83a13.5 13.5 0 0012.381 0 6.77 6.77 0 013.141-.83c2.129 0 4.667.876 4.667 5.047a11.9 11.9 0 01-3.172 8.008l-1.5 1.385v6.56H82.667z" fill="#F6F3FF"/><path d="M101.333 73.666v-6.56l1.5-1.385A11.902 11.902 0 00106 57.713c0-4.171-2.538-5.047-4.667-5.047a6.762 6.762 0 00-3.141.83 13.5 13.5 0 01-12.381 0 6.788 6.788 0 00-3.145-.83c-2.129 0-4.666.876-4.666 5.047a11.88 11.88 0 003.21 8.043l1.415 1.374.042 6.535H78v-4.522a16.592 16.592 0 01-4.667-11.43c0-7.1 4.968-9.713 9.334-9.713s5.565 2.334 9.333 2.334S96.965 48 101.333 48s9.334 2.614 9.334 9.713A16.592 16.592 0 01106 69.144v4.523l-4.667-.001z" fill="#4C18AA"/><path d="M64 73.666v4.668h26.544L78 82.515v4.92l27.3-9.1H120v-4.669H64z" fill="#923BFE"/></g><defs><filter id="filter0_d" x="0" y="0" width="184" height="184" filterUnits="userSpaceOnUse" color-interpolation-filters="sRGB"><feFlood flood-opacity="0" result="BackgroundImageFix"/><feColorMatrix in="SourceAlpha" values="0 0 0 0 0 0 0 0 0 0 0 0 0 0 0 0 0 0 127 0"/><feOffset dy="16"/><feGaussianBlur stdDeviation="16"/><feColorMatrix values="0 0 0 0 0.270588 0 0 0 0 0.129412 0 0 0 0 0.639216 0 0 0 0.102 0"/><feBlend in2="BackgroundImageFix" result="effect1_dropShadow"/><feBlend in="SourceGraphic" in2="effect1_dropShadow" result="shape"/></filter></defs></svg>