<svg width="184" height="184" fill="none" xmlns="http://www.w3.org/2000/svg"><g filter="url(#filter0_d)"><path d="M64 16h56a31.998 31.998 0 0132 32v56a31.996 31.996 0 01-9.373 22.627A31.996 31.996 0 01120 136H64a31.997 31.997 0 01-32-32V48a32 32 0 0132-32z" fill="#F6F3FF"/><path d="M117 85c0-19.889-9.16-36-20.454-36A6.8 6.8 0 0092 50.752 6.806 6.806 0 0087.455 49C76.155 49 67 65.112 67 85a18.092 18.092 0 0018.182 18h2.273a6.8 6.8 0 004.546-1.751A6.808 6.808 0 0096.546 103h2.273A18.09 18.09 0 00117 85z" fill="#4C18AA"/><path d="M89.727 96.248v-40.5a2.266 2.266 0 00-2.272-2.252c-3.7 0-7.521 3.008-10.5 8.248a38.215 38.215 0 00-3.486 8.629l-.807 3.374a56.648 56.648 0 00-1.118 11.254 13.587 13.587 0 0013.634 13.5h2.275a2.265 2.265 0 002.274-2.253zm22.726-11.247a56.591 56.591 0 00-1.114-11.25l-.8-3.374a38.272 38.272 0 00-3.486-8.629c-2.978-5.24-6.8-8.248-10.5-8.248a2.266 2.266 0 00-2.273 2.252v40.5a2.265 2.265 0 002.273 2.25h2.277a13.582 13.582 0 0013.623-13.501z" fill="#F6F3FF"/><path d="M94.273 58.002a5.654 5.654 0 005.681 5.625h4.546v3.375h-4.546a9.058 9.058 0 01-5.681-2.026v-6.974zm17.064 15.749h-6.834a3.391 3.391 0 00-3.409 3.375v4.5h-3.412v-4.5a6.784 6.784 0 016.817-6.749h6.03l.808 3.374z" fill="#923BFE"/><path d="M94.273 87.25h4.546a5.656 5.656 0 005.681-5.623v-3.375h3.409v3.375a9 9 0 01-6.818 8.68v4.819h-3.409v-4.5h-3.409V87.25zm-4.541-22.274a9.054 9.054 0 01-5.682 2.026h-4.549v-3.375h4.544a5.654 5.654 0 005.687-5.625v6.974zm-.008 25.649h-3.406v4.5h-3.409v-4.818a9 9 0 01-6.818-8.68v-3.375H79.5v3.375a5.653 5.653 0 005.682 5.623h4.542v3.375z" fill="#923BFE"/><path d="M73.47 70.377h6.028a6.785 6.785 0 016.826 6.749v4.5h-3.412v-4.5a3.392 3.392 0 00-3.409-3.375h-6.84l.807-3.374z" fill="#923BFE"/></g><defs><filter id="filter0_d" x="0" y="0" width="184" height="184" filterUnits="userSpaceOnUse" color-interpolation-filters="sRGB"><feFlood flood-opacity="0" result="BackgroundImageFix"/><feColorMatrix in="SourceAlpha" values="0 0 0 0 0 0 0 0 0 0 0 0 0 0 0 0 0 0 127 0"/><feOffset dy="16"/><feGaussianBlur stdDeviation="16"/><feColorMatrix values="0 0 0 0 0.270588 0 0 0 0 0.129412 0 0 0 0 0.639216 0 0 0 0.102 0"/><feBlend in2="BackgroundImageFix" result="effect1_dropShadow"/><feBlend in="SourceGraphic" in2="effect1_dropShadow" result="shape"/></filter></defs></svg>