<svg width="361" height="404" fill="none" xmlns="http://www.w3.org/2000/svg"><g clip-path="url(#clip0)"><path d="M180.528 403.168a41.726 41.726 0 01-20.867-5.574L21.388 317.762A41.843 41.843 0 01.521 281.624L.496 122.007a41.849 41.849 0 0120.871-36.15L159.606 6.068a41.852 41.852 0 0141.73 0l138.278 79.839a41.853 41.853 0 0120.867 36.139l.015 159.611a41.858 41.858 0 01-5.606 20.863 41.855 41.855 0 01-15.265 15.287l-138.234 79.789a41.72 41.72 0 01-20.863 5.572zm-.054-402.15a41.2 41.2 0 00-20.6 5.5L21.631 86.307a41.326 41.326 0 00-20.612 35.7l.021 159.614a41.332 41.332 0 0020.608 35.69l138.273 79.831a41.325 41.325 0 0041.211 0l138.237-79.789a41.323 41.323 0 0020.612-35.7l-.018-159.614a41.33 41.33 0 00-20.608-35.69L201.082 6.522a41.215 41.215 0 00-20.608-5.504z" fill="url(#paint0_linear)"/><path d="M199.138 9.889a37.432 37.432 0 00-37.324 0L23.576 89.679a37.428 37.428 0 00-18.668 32.333l.018 159.613a37.435 37.435 0 0018.664 32.322l138.273 79.832a37.433 37.433 0 0037.324 0l138.238-79.79a37.431 37.431 0 0018.668-32.334l-.018-159.612a37.431 37.431 0 00-18.664-32.323L199.138 9.889zm2.074-3.592l138.273 79.832a41.477 41.477 0 0120.738 35.914l.018 159.612a41.478 41.478 0 01-20.742 35.928l-138.237 79.79a41.481 41.481 0 01-41.471 0L21.517 317.538A41.478 41.478 0 01.779 281.624L.761 122.011a41.478 41.478 0 0120.742-35.928L159.74 6.293a41.476 41.476 0 0141.472.005v-.001z" fill="url(#paint1_linear)"/><path d="M180.528 403.168a41.726 41.726 0 01-20.867-5.574L21.387 317.762A41.858 41.858 0 01.52 281.623L.502 122.007a41.851 41.851 0 0120.871-36.15l138.238-79.79a41.852 41.852 0 0141.73 0l138.273 79.84a41.853 41.853 0 0120.867 36.139l.019 159.613a41.849 41.849 0 01-20.871 36.15l-138.235 79.788a41.73 41.73 0 01-20.866 5.571zm-.053-402.15a41.206 41.206 0 00-20.6 5.5L21.633 86.307a41.33 41.33 0 00-20.612 35.7l.018 159.612a41.334 41.334 0 0020.608 35.69L159.92 397.14a41.336 41.336 0 0041.212 0l138.238-79.79a41.328 41.328 0 0020.612-35.7l-.019-159.613a41.33 41.33 0 00-20.608-35.69L201.082 6.522a41.212 41.212 0 00-20.608-5.504h.001zm.053 398a37.568 37.568 0 01-18.794-5.02L23.461 314.17a37.697 37.697 0 01-18.794-32.547L4.65 122.007a37.691 37.691 0 0118.8-32.558l138.238-79.79a37.689 37.689 0 0137.583 0l138.27 79.838a37.694 37.694 0 0118.793 32.547l.019 159.612a37.689 37.689 0 01-18.8 32.558l-138.236 79.793a37.578 37.578 0 01-18.789 5.015v-.004zM180.475 5.16a37.055 37.055 0 00-18.531 4.947l-138.238 79.8a37.171 37.171 0 00-18.538 32.1l.018 159.613a37.174 37.174 0 0018.534 32.1l138.274 79.834a37.177 37.177 0 0037.064 0l138.236-79.788a37.174 37.174 0 0018.537-32.109l-.019-159.612a37.175 37.175 0 00-18.534-32.1l-138.27-79.831a37.064 37.064 0 00-18.534-4.95l.001-.004z" fill="url(#paint2_linear)"/><path d="M180.283 390.188a41.716 41.716 0 01-20.868-5.574L32.384 311.273a41.856 41.856 0 01-20.868-36.144l.008-146.7a41.852 41.852 0 0120.865-36.14l127.047-73.36a41.85 41.85 0 0141.735 0l127.032 73.339a41.854 41.854 0 0120.867 36.144l-.007 146.704a41.854 41.854 0 01-20.866 36.14l-127.046 73.358a41.727 41.727 0 01-20.868 5.574zm.02-376.318a41.208 41.208 0 00-20.608 5.5L32.648 92.73a41.331 41.331 0 00-20.606 35.691l-.008 146.7a41.333 41.333 0 0020.609 35.695l127.032 73.352a41.325 41.325 0 0041.217 0l127.046-73.359a41.33 41.33 0 0020.607-35.691l.008-146.706a41.33 41.33 0 00-20.608-35.695L200.912 19.375a41.207 41.207 0 00-20.609-5.507v.002z" fill="url(#paint3_linear)"/><path d="M198.968 22.744a37.43 37.43 0 00-37.329 0L34.593 96.102a37.433 37.433 0 00-18.662 32.324l-.008 146.7a37.432 37.432 0 0018.664 32.328L161.622 380.8a37.436 37.436 0 0037.329 0l127.042-73.356a37.43 37.43 0 0018.662-32.324l.007-146.7a37.43 37.43 0 00-18.664-32.329l-127.03-73.347zm2.074-3.592l127.03 73.34a41.47 41.47 0 0120.738 35.921l-.007 146.7c0 7.28-1.917 14.431-5.556 20.736a41.482 41.482 0 01-15.18 15.18l-127.045 73.362a41.47 41.47 0 01-41.477 0l-127.032-73.34a41.468 41.468 0 01-20.738-35.921l.008-146.7a41.479 41.479 0 0120.739-35.92l127.046-73.359a41.478 41.478 0 0141.474 0v.001z" fill="url(#paint4_linear)"/><path d="M180.281 390.19a41.725 41.725 0 01-20.867-5.573l-127.03-73.342a41.854 41.854 0 01-20.868-36.145l.008-146.7a41.852 41.852 0 0120.865-36.14l127.046-73.359a41.853 41.853 0 0141.737 0l127.031 73.337a41.855 41.855 0 0120.867 36.145l-.008 146.7a41.854 41.854 0 01-20.866 36.14l-127.045 73.362a41.728 41.728 0 01-20.87 5.575zm.023-376.319a41.202 41.202 0 00-20.61 5.505L32.648 92.735a41.331 41.331 0 00-20.606 35.691l-.008 146.7a41.333 41.333 0 0020.609 35.7l127.031 73.342a41.338 41.338 0 0041.218 0l127.045-73.36a41.33 41.33 0 0020.607-35.691l.008-146.7a41.334 41.334 0 00-20.608-35.7L200.912 19.375a41.213 41.213 0 00-20.608-5.507v.003zm-.022 372.174a37.578 37.578 0 01-18.794-5.02l-127.03-73.342a37.695 37.695 0 01-18.795-32.552l.008-146.7a37.69 37.69 0 0118.792-32.553l127.046-73.359a37.692 37.692 0 0137.589 0L326.129 95.86a37.69 37.69 0 0118.794 32.553l-.008 146.7a37.69 37.69 0 01-18.792 32.555l-127.046 73.356a37.586 37.586 0 01-18.795 5.021zm.022-368.028a37.054 37.054 0 00-18.536 4.951L34.723 96.327a37.17 37.17 0 00-18.533 32.1l-.008 146.7a37.174 37.174 0 0018.535 32.1l127.031 73.341a37.17 37.17 0 0037.07 0l127.045-73.352a37.17 37.17 0 0018.533-32.1l.008-146.7a37.169 37.169 0 00-18.534-32.1L198.838 22.968a37.062 37.062 0 00-18.534-4.951z" fill="url(#paint5_linear)"/><path d="M180.572 376.773a41.725 41.725 0 01-20.867-5.573L43.882 304.33a41.855 41.855 0 01-20.867-36.124l-.063-133.552a41.843 41.843 0 0120.884-36.173L159.527 31.76a41.854 41.854 0 0141.718.01l115.822 66.868a41.867 41.867 0 0115.255 15.276 41.867 41.867 0 015.612 20.847l.062 133.553a41.852 41.852 0 01-20.884 36.174L201.423 371.21a41.734 41.734 0 01-20.851 5.563zm-.195-350.057a41.2 41.2 0 00-20.591 5.494L44.096 98.93a41.321 41.321 0 00-20.625 35.724l.063 133.552a41.339 41.339 0 0020.608 35.675l115.823 66.87a41.333 41.333 0 0041.2.01l115.688-66.723a41.322 41.322 0 0020.625-35.724l-.062-133.553a41.333 41.333 0 00-20.608-35.675l-115.822-66.87a41.214 41.214 0 00-20.609-5.501v.001z" fill="url(#paint6_linear)"/><path d="M199.041 35.586a37.434 37.434 0 00-37.312-.009L46.038 102.299a37.424 37.424 0 00-18.679 32.353l.063 133.552a37.433 37.433 0 0018.664 32.31l115.822 66.87a37.437 37.437 0 0037.313.009l115.69-66.722a37.428 37.428 0 0018.679-32.357l-.063-133.552a37.44 37.44 0 00-18.664-32.309L199.041 35.586zm2.074-3.592l115.822 66.87a41.47 41.47 0 0120.738 35.9l.063 133.552a41.473 41.473 0 01-20.755 35.948l-115.691 66.721a41.477 41.477 0 01-41.458-.01l-115.822-66.87a41.482 41.482 0 01-20.738-35.9l-.063-133.551a41.476 41.476 0 0120.755-35.948l115.691-66.721a41.475 41.475 0 0141.458.01v-.001z" fill="url(#paint7_linear)"/><path d="M180.572 376.773a41.726 41.726 0 01-20.868-5.573L43.882 304.33a41.848 41.848 0 01-20.867-36.124l-.063-133.552a41.845 41.845 0 0120.884-36.173L159.527 31.76a41.854 41.854 0 0141.718.01l115.822 66.868a41.867 41.867 0 0115.255 15.276 41.867 41.867 0 015.612 20.847l.063 133.552a41.845 41.845 0 01-20.884 36.173l-115.69 66.721a41.737 41.737 0 01-20.851 5.566zm-.195-350.057a41.204 41.204 0 00-20.591 5.494L44.096 98.931a41.326 41.326 0 00-20.625 35.723l.063 133.552a41.335 41.335 0 0020.608 35.675l115.822 66.87a41.333 41.333 0 0041.2.01l115.69-66.723a41.327 41.327 0 0020.625-35.723l-.063-133.552a41.33 41.33 0 00-20.608-35.675l-115.822-66.87a41.212 41.212 0 00-20.609-5.503v.001zm.195 345.911a37.567 37.567 0 01-18.794-5.019l-115.822-66.87a37.686 37.686 0 01-18.794-32.533l-.063-133.552a37.69 37.69 0 0118.809-32.578l115.691-66.721a37.69 37.69 0 0137.572.009l115.821 66.87a37.698 37.698 0 0118.793 32.534l.063 133.552a37.691 37.691 0 01-18.806 32.577L199.35 367.617a37.572 37.572 0 01-18.778 5.01zm-.194-341.766a37.06 37.06 0 00-18.519 4.941L46.168 102.524a37.168 37.168 0 00-18.55 32.128l.063 133.552a37.172 37.172 0 0018.534 32.085l115.827 66.87a37.179 37.179 0 0037.053.008l115.687-66.721a37.16 37.16 0 0018.549-32.129l-.063-133.551a37.174 37.174 0 00-18.534-32.085l-115.822-66.87a37.066 37.066 0 00-18.534-4.95z" fill="url(#paint8_linear)"/><path d="M180.863 363.875a41.725 41.725 0 01-20.867-5.573l-104.617-60.4a41.857 41.857 0 01-20.867-36.1l-.13-120.4a41.84 41.84 0 0120.906-36.21L159.62 45.105a41.855 41.855 0 0141.7.023l104.617 60.4a41.85 41.85 0 0120.867 36.1l.13 120.4a41.835 41.835 0 01-20.909 36.21l-104.334 60.088a41.729 41.729 0 01-20.828 5.549zm-.415-323.8a41.207 41.207 0 00-20.569 5.481L55.546 105.645A41.318 41.318 0 0034.9 141.406l.13 120.4a41.335 41.335 0 0020.608 35.65l104.617 60.4a41.338 41.338 0 0041.177.022l104.332-60.086a41.309 41.309 0 0020.647-35.766l-.13-120.4a41.333 41.333 0 00-20.608-35.649l-104.617-60.4a41.213 41.213 0 00-20.609-5.5l.001-.002z" fill="url(#paint9_linear)"/><path d="M199.112 48.948a37.435 37.435 0 00-37.293-.02L57.484 109.014a37.421 37.421 0 00-18.7 32.389l.13 120.4a37.437 37.437 0 0018.67 32.282l104.617 60.4a37.431 37.431 0 0037.293.02l104.332-60.086a37.415 37.415 0 0018.7-32.387l-.13-120.4a37.433 37.433 0 00-18.664-32.286l-104.617-60.4-.003.002zm2.077-3.594l104.617 60.4a41.475 41.475 0 0120.738 35.874l.13 120.4a41.479 41.479 0 01-20.776 35.986l-104.337 60.089a41.48 41.48 0 01-41.436-.022l-104.617-60.4a41.478 41.478 0 01-20.738-35.878l-.13-120.4a41.473 41.473 0 0120.777-35.986l104.332-60.086a41.474 41.474 0 0141.435.025l.005-.002z" fill="url(#paint10_linear)"/><path d="M180.863 363.875a41.725 41.725 0 01-20.867-5.573l-104.617-60.4a41.852 41.852 0 01-20.867-36.1l-.13-120.4a41.837 41.837 0 0120.906-36.211L159.62 45.105a41.853 41.853 0 0141.7.023l104.617 60.4a41.864 41.864 0 0120.867 36.1l.13 120.4a41.842 41.842 0 01-20.909 36.211l-104.334 60.088a41.738 41.738 0 01-20.828 5.548zm-.415-323.8a41.207 41.207 0 00-20.569 5.481L55.546 105.645A41.317 41.317 0 0034.9 141.406l.13 120.4a41.335 41.335 0 0020.608 35.65l104.617 60.4a41.338 41.338 0 0041.177.022l104.332-60.086a41.309 41.309 0 0020.647-35.765l-.13-120.4a41.337 41.337 0 00-20.608-35.65l-104.617-60.4a41.213 41.213 0 00-20.609-5.5l.001-.002zm.415 319.652a37.57 37.57 0 01-18.794-5.019l-104.617-60.4a37.698 37.698 0 01-18.794-32.51l-.13-120.4a37.685 37.685 0 0118.829-32.612L161.689 48.7a37.7 37.7 0 0137.552.02l104.617 60.4a37.708 37.708 0 0118.794 32.511l.13 120.4a37.675 37.675 0 01-18.828 32.612l-104.329 60.084a37.581 37.581 0 01-18.762 5zm-.416-315.5a37.063 37.063 0 00-18.5 4.929L57.616 109.239a37.163 37.163 0 00-18.569 32.163l.13 120.4a37.176 37.176 0 0018.534 32.063l104.617 60.4a37.176 37.176 0 0037.034.02l104.331-60.087a37.157 37.157 0 0018.569-32.162l-.13-120.4a37.18 37.18 0 00-18.534-32.063l-104.617-60.4a37.066 37.066 0 00-18.534-4.946z" fill="url(#paint11_linear)"/><path d="M180.577 350.898a41.725 41.725 0 01-20.867-5.573l-93.377-53.911a41.85 41.85 0 01-20.868-36.1l-.1-107.488a41.84 41.84 0 0120.9-36.2l93.138-53.656a41.856 41.856 0 0141.7.02l93.377 53.911a41.864 41.864 0 0120.867 36.1l.1 107.488a41.833 41.833 0 01-5.606 20.897 41.833 41.833 0 01-15.294 15.303l-93.138 53.655a41.735 41.735 0 01-20.832 5.554zm-.341-297.968a41.2 41.2 0 00-20.574 5.484l-93.139 53.655a41.321 41.321 0 00-20.642 35.753l.1 107.488a41.335 41.335 0 0020.609 35.656l93.377 53.911a41.337 41.337 0 0041.182.019l93.138-53.655a41.32 41.32 0 0020.646-35.753l-.1-107.488a41.338 41.338 0 00-20.61-35.655l-93.377-53.911a41.215 41.215 0 00-20.609-5.504h-.001z" fill="url(#paint12_linear)"/><path d="M198.901 61.801a37.439 37.439 0 00-37.3-.018l-93.138 53.656a37.42 37.42 0 00-18.7 32.38l.1 107.488a37.439 37.439 0 0018.664 32.292l93.377 53.911a37.437 37.437 0 0037.3.018l93.138-53.656a37.422 37.422 0 0018.695-32.38l-.1-107.488a37.437 37.437 0 00-18.655-32.291l-93.377-53.911-.004-.001zm2.078-3.591l93.377 53.911A41.475 41.475 0 01315.094 148l.1 107.488a41.472 41.472 0 01-20.775 35.977l-93.137 53.656a41.478 41.478 0 01-41.441-.02L66.464 291.19a41.474 41.474 0 01-20.738-35.879l-.1-107.488a41.476 41.476 0 0120.772-35.977l93.138-53.656a41.475 41.475 0 0141.439.02h.004z" fill="url(#paint13_linear)"/><path d="M180.578 350.898a41.725 41.725 0 01-20.867-5.573l-93.378-53.911a41.852 41.852 0 01-20.867-36.1l-.1-107.488a41.836 41.836 0 0120.9-36.2l93.138-53.656a41.855 41.855 0 0141.7.02l93.378 53.911a41.864 41.864 0 0120.867 36.1l.1 107.488a41.833 41.833 0 01-5.606 20.897 41.833 41.833 0 01-15.294 15.303l-93.138 53.655a41.719 41.719 0 01-20.833 5.554zm-.341-297.968a41.208 41.208 0 00-20.574 5.484l-93.14 53.656a41.314 41.314 0 00-20.642 35.753l.1 107.488a41.336 41.336 0 0020.608 35.656l93.377 53.911a41.337 41.337 0 0041.182.019l93.138-53.655a41.325 41.325 0 0020.646-35.754l-.1-107.488a41.337 41.337 0 00-20.609-35.655l-93.378-53.911a41.212 41.212 0 00-20.608-5.503v-.001zm.341 293.822a37.57 37.57 0 01-18.794-5.019l-93.377-53.912a37.694 37.694 0 01-18.794-32.515l-.1-107.488a37.684 37.684 0 0118.825-32.6l93.138-53.655a37.701 37.701 0 0137.556.018l93.376 53.907a37.7 37.7 0 0118.794 32.516l.1 107.488a37.681 37.681 0 01-18.824 32.6l-93.138 53.656a37.586 37.586 0 01-18.762 5.005v-.001zm-.341-289.677a37.06 37.06 0 00-18.5 4.932l-93.138 53.655a37.159 37.159 0 00-18.565 32.155l.1 107.489a37.177 37.177 0 0018.534 32.067l93.376 53.915a37.188 37.188 0 0018.517 4.95 37.185 37.185 0 0018.521-4.932l93.141-53.66a37.164 37.164 0 0018.562-32.158l-.1-107.488a37.178 37.178 0 00-18.534-32.067l-93.378-53.911a37.064 37.064 0 00-18.536-4.946v-.001z" fill="url(#paint14_linear)"/><path d="M180.848 337.921a41.723 41.723 0 01-20.867-5.571l-82.136-47.422a41.85 41.85 0 01-20.867-36.109l-.075-94.578a41.844 41.844 0 0120.9-36.193l81.945-47.224a41.856 41.856 0 0141.706.017l82.138 47.422a41.85 41.85 0 0120.867 36.11l.074 94.578a41.84 41.84 0 01-20.9 36.193l-81.945 47.224a41.733 41.733 0 01-20.84 5.553zm-.266-272.138a41.2 41.2 0 00-20.58 5.487l-81.945 47.224a41.324 41.324 0 00-20.636 35.744l.075 94.579a41.331 41.331 0 0020.61 35.661l82.136 47.422a41.339 41.339 0 0041.188.016l81.945-47.224a41.322 41.322 0 0020.631-35.742l-.074-94.577a41.342 41.342 0 00-20.608-35.662l-82.138-47.422a41.21 41.21 0 00-20.604-5.506z" fill="url(#paint15_linear)"/><path d="M199.246 74.654a37.434 37.434 0 00-37.3-.015l-81.945 47.224a37.426 37.426 0 00-18.69 32.372l.076 94.579a37.43 37.43 0 0018.664 32.3l82.136 47.421a37.439 37.439 0 0037.3.015l81.944-47.223a37.42 37.42 0 0018.69-32.372l-.076-94.579a37.435 37.435 0 00-18.664-32.3l-82.136-47.421.001-.001zm2.073-3.591l82.136 47.421a41.479 41.479 0 0120.738 35.885l.076 94.579a41.482 41.482 0 01-5.556 20.771 41.48 41.48 0 01-15.21 15.197l-81.945 47.224a41.481 41.481 0 01-41.448-.013l-82.136-47.421a41.471 41.471 0 01-20.738-35.886l-.076-94.579a41.474 41.474 0 0120.766-35.969l81.946-47.224a41.474 41.474 0 0141.448.014l-.001.001z" fill="url(#paint16_linear)"/><path d="M180.848 337.921a41.713 41.713 0 01-20.867-5.571l-82.136-47.421a41.852 41.852 0 01-20.867-36.11l-.076-94.578a41.845 41.845 0 0120.9-36.193l81.945-47.224a41.852 41.852 0 0141.706.017l82.136 47.421a41.858 41.858 0 0120.867 36.11l.076 94.579a41.84 41.84 0 01-20.9 36.193l-81.946 47.221a41.726 41.726 0 01-20.838 5.556zm-.266-272.138a41.207 41.207 0 00-20.58 5.487l-81.945 47.224a41.318 41.318 0 00-20.637 35.744l.076 94.579a41.335 41.335 0 0020.61 35.661l82.136 47.421a41.338 41.338 0 0041.187.016l81.946-47.224a41.322 41.322 0 0020.631-35.741l-.076-94.579a41.342 41.342 0 00-20.608-35.662l-82.136-47.421a41.209 41.209 0 00-20.604-5.505zm.266 267.993a37.578 37.578 0 01-18.794-5.02l-82.136-47.421a37.699 37.699 0 01-18.793-32.521l-.076-94.579a37.685 37.685 0 0118.819-32.6l81.946-47.224a37.694 37.694 0 0137.561.015l82.137 47.424a37.7 37.7 0 0118.794 32.522l.075 94.579a37.686 37.686 0 01-18.819 32.6l-81.946 47.22a37.597 37.597 0 01-18.768 5.004v.001zm-.266-263.847a37.06 37.06 0 00-18.508 4.935l-81.945 47.224a37.162 37.162 0 00-18.56 32.147l.076 94.579a37.173 37.173 0 0018.534 32.072l82.136 47.421a37.175 37.175 0 0037.043.014l81.948-47.223a37.158 37.158 0 0018.56-32.147l-.075-94.579a37.174 37.174 0 00-18.534-32.073l-82.141-47.421a37.06 37.06 0 00-18.534-4.95v.001z" fill="url(#paint17_linear)"/><path d="M180.599 324.944a41.725 41.725 0 01-20.867-5.573L88.837 278.44a41.854 41.854 0 01-20.865-36.117l-.049-81.671a41.843 41.843 0 0120.89-36.182l70.754-40.793a41.855 41.855 0 0141.712.013l70.893 40.931a41.851 41.851 0 0120.867 36.117l.05 81.672a41.84 41.84 0 01-20.889 36.182l-70.755 40.793a41.735 41.735 0 01-20.846 5.559zm-.19-246.308a41.207 41.207 0 00-20.586 5.491l-70.751 40.792a41.323 41.323 0 00-20.63 35.732l.049 81.672a41.333 41.333 0 0020.608 35.668l70.895 40.932a41.336 41.336 0 0041.194.012l70.755-40.793a41.313 41.313 0 0020.629-35.731l-.05-81.671a41.334 41.334 0 00-20.608-35.669l-70.893-40.93a41.206 41.206 0 00-20.612-5.505z" fill="url(#paint18_linear)"/><path d="M199.074 87.507a37.435 37.435 0 00-37.308-.012l-70.755 40.792a37.427 37.427 0 00-18.68 32.362l.051 81.671a37.436 37.436 0 0018.664 32.3l70.893 40.93a37.434 37.434 0 0037.308.011l70.754-40.792a37.418 37.418 0 0018.684-32.362l-.05-81.671a37.43 37.43 0 00-18.664-32.3l-70.893-40.93-.004.001zm2.078-3.593l70.893 40.93a41.48 41.48 0 0120.738 35.893l.05 81.671a41.469 41.469 0 01-20.76 35.957l-70.754 40.792a41.481 41.481 0 01-41.454-.013l-70.893-40.93a41.471 41.471 0 01-20.741-35.892l-.05-81.671a41.473 41.473 0 0120.759-35.957l70.754-40.792a41.477 41.477 0 0141.453.013l.005-.001z" fill="url(#paint19_linear)"/><path d="M180.599 324.944a41.725 41.725 0 01-20.867-5.573l-70.893-40.93a41.857 41.857 0 01-20.867-36.118l-.05-81.671a41.843 41.843 0 0120.89-36.182l70.754-40.792a41.853 41.853 0 0141.712.012l70.894 40.931a41.851 41.851 0 0120.867 36.117l.05 81.672a41.84 41.84 0 01-20.889 36.182l-70.754 40.792a41.73 41.73 0 01-20.847 5.56zm-.189-246.308a41.2 41.2 0 00-20.586 5.491l-70.752 40.792a41.322 41.322 0 00-20.63 35.733l.05 81.672A41.332 41.332 0 0089.1 277.992l70.893 40.93a41.33 41.33 0 0041.194.012l70.754-40.792a41.316 41.316 0 0020.631-35.731l-.05-81.671a41.334 41.334 0 00-20.608-35.669l-70.893-40.93a41.216 41.216 0 00-20.611-5.505zm.189 242.162a37.59 37.59 0 01-18.794-5.019l-70.893-40.93a37.689 37.689 0 01-18.793-32.528l-.047-81.672a37.683 37.683 0 0118.813-32.586l70.754-40.792a37.693 37.693 0 0137.567.011l70.89 40.929a37.695 37.695 0 0118.794 32.528l.05 81.671a37.684 37.684 0 01-18.813 32.586l-70.755 40.795a37.595 37.595 0 01-18.773 5.007zm-.189-238.016a37.056 37.056 0 00-18.515 4.939l-70.755 40.79a37.17 37.17 0 00-18.553 32.137l.05 81.672a37.175 37.175 0 0018.535 32.08l70.893 40.93a37.175 37.175 0 0037.048.01l70.759-40.791a37.169 37.169 0 0018.55-32.138l-.05-81.671a37.171 37.171 0 00-18.534-32.08l-70.894-40.929a37.065 37.065 0 00-18.535-4.949h.001z" fill="url(#paint20_linear)"/><path d="M180.398 311.966a41.725 41.725 0 01-20.867-5.573l-59.649-34.439a41.857 41.857 0 01-20.867-36.127l-.027-68.765a41.849 41.849 0 0120.882-36.168l59.565-34.358a41.85 41.85 0 0141.72.008l59.649 34.438a41.86 41.86 0 0120.867 36.127l.027 68.764a41.849 41.849 0 01-20.882 36.168L201.251 306.4a41.723 41.723 0 01-20.853 5.566zm-.106-220.475a41.2 41.2 0 00-20.594 5.5l-59.565 34.358a41.322 41.322 0 00-20.623 35.719l.027 68.765a41.335 41.335 0 0020.608 35.678l59.647 34.433a41.337 41.337 0 0041.2.008l59.565-34.359a41.327 41.327 0 0020.622-35.721l-.027-68.764a41.34 41.34 0 00-20.608-35.678l-59.652-34.436a41.209 41.209 0 00-20.6-5.503z" fill="url(#paint21_linear)"/><path d="M198.951 100.361a37.437 37.437 0 00-37.315-.007l-59.565 34.359a37.427 37.427 0 00-18.677 32.349l.027 68.765a37.432 37.432 0 0018.664 32.312l59.649 34.438a37.429 37.429 0 0037.315.007l59.565-34.358a37.431 37.431 0 0018.676-32.349l-.027-68.764a37.427 37.427 0 00-18.664-32.312l-59.648-34.44zm2.074-3.592l59.648 34.438a41.472 41.472 0 0120.738 35.9l.027 68.764a41.475 41.475 0 01-20.752 35.943l-59.565 34.359a41.48 41.48 0 01-41.461-.008l-59.649-34.439a41.475 41.475 0 01-20.738-35.9l-.027-68.764a41.475 41.475 0 0120.752-35.944l59.565-34.359a41.476 41.476 0 0141.462.011v-.001z" fill="url(#paint22_linear)"/><path d="M180.399 311.966a41.716 41.716 0 01-20.868-5.574l-59.649-34.438a41.857 41.857 0 01-20.867-36.127l-.027-68.764a41.846 41.846 0 0120.882-36.168l59.565-34.359a41.853 41.853 0 0141.721.008l59.649 34.438a41.86 41.86 0 0120.867 36.127l.026 68.764a41.848 41.848 0 01-20.881 36.168L201.252 306.4a41.723 41.723 0 01-20.853 5.566zm-.107-220.475a41.2 41.2 0 00-20.594 5.5l-59.565 34.359a41.322 41.322 0 00-20.623 35.719l.027 68.764a41.333 41.333 0 0020.608 35.679l59.647 34.432a41.336 41.336 0 0041.2.009l59.565-34.359a41.327 41.327 0 0020.622-35.722l-.026-68.764a41.34 41.34 0 00-20.608-35.678l-59.653-34.436a41.212 41.212 0 00-20.6-5.503zm.111 216.33a37.578 37.578 0 01-18.794-5.02l-59.649-34.438a37.69 37.69 0 01-18.794-32.537l-.027-68.764a37.683 37.683 0 0118.807-32.573l59.565-34.359a37.7 37.7 0 0137.575.007l59.644 34.435a37.708 37.708 0 0113.739 13.76 37.711 37.711 0 015.054 18.777l.026 68.764a37.682 37.682 0 01-18.806 32.573l-59.565 34.359a37.588 37.588 0 01-18.779 5.015l.004.001zm-.111-212.185a37.06 37.06 0 00-18.521 4.942l-59.565 34.359a37.163 37.163 0 00-18.547 32.124l.027 68.764a37.178 37.178 0 0018.534 32.088l59.649 34.438a37.17 37.17 0 0037.056.007L258.49 268a37.157 37.157 0 0013.565-13.586 37.163 37.163 0 004.977-18.542l-.026-68.764a37.17 37.17 0 00-18.534-32.087l-59.65-34.435a37.064 37.064 0 00-18.53-4.95z" fill="url(#paint23_linear)"/><path d="M180.151 298.985a41.721 41.721 0 01-20.866-5.573l-48.4-27.945a41.85 41.85 0 01-20.868-36.135l-.011-55.858a41.849 41.849 0 0120.871-36.15l48.381-27.926a41.857 41.857 0 0141.734 0l48.4 27.945a41.854 41.854 0 0120.866 36.14l.008 55.858a41.849 41.849 0 01-20.872 36.15l-48.378 27.922a41.727 41.727 0 01-20.865 5.572zm-.031-194.641a41.204 41.204 0 00-20.606 5.5l-48.378 27.923a41.324 41.324 0 00-20.612 35.7l.011 55.858a41.335 41.335 0 0020.608 35.69l48.4 27.944a41.336 41.336 0 0041.211 0l48.378-27.922a41.323 41.323 0 0020.613-35.7l-.008-55.858a41.324 41.324 0 00-20.608-35.689l-48.4-27.945a41.205 41.205 0 00-20.609-5.501z" fill="url(#paint24_linear)"/><path d="M198.785 113.216a37.436 37.436 0 00-37.324 0l-48.379 27.921a37.428 37.428 0 00-18.667 32.334l.007 55.858a37.43 37.43 0 0018.664 32.323l48.4 27.945a37.436 37.436 0 0037.324 0l48.378-27.924a37.431 37.431 0 0018.667-32.333l-.006-55.859a37.43 37.43 0 00-18.664-32.322l-48.4-27.945v.002zm2.074-3.594l48.4 27.945a41.48 41.48 0 0120.738 35.914l.006 55.859a41.478 41.478 0 01-20.742 35.926l-48.378 27.924a41.48 41.48 0 01-41.471 0l-48.4-27.945a41.475 41.475 0 01-20.738-35.914l-.007-55.859a41.479 41.479 0 0120.742-35.926l48.378-27.924a41.47 41.47 0 0141.471.002l.001-.002z" fill="url(#paint25_linear)"/><path d="M180.156 298.986a41.727 41.727 0 01-20.868-5.574l-48.4-27.944a41.854 41.854 0 01-20.874-36.137l-.006-55.858a41.852 41.852 0 0120.871-36.15l48.377-27.926a41.848 41.848 0 0141.73 0l48.4 27.945a41.857 41.857 0 0120.87 36.14l.006 55.859a41.858 41.858 0 01-5.606 20.863 41.855 41.855 0 01-15.265 15.287l-48.378 27.924a41.717 41.717 0 01-20.857 5.571zm-.03-194.642a41.202 41.202 0 00-20.6 5.5l-48.378 27.924a41.33 41.33 0 00-20.612 35.7l.006 55.858a41.334 41.334 0 0020.608 35.69l48.4 27.944a41.325 41.325 0 0041.212 0l48.378-27.924a41.323 41.323 0 0020.612-35.7l-.006-55.859a41.324 41.324 0 00-20.608-35.689l-48.4-27.945a41.21 41.21 0 00-20.617-5.499h.005zm.03 190.5a37.572 37.572 0 01-18.8-5.023l-48.4-27.945a37.685 37.685 0 01-18.794-32.545l-.006-55.86a37.69 37.69 0 0118.8-32.558l48.378-27.924a37.693 37.693 0 0137.583 0l48.4 27.945a37.7 37.7 0 0118.794 32.547l.006 55.858a37.689 37.689 0 01-18.8 32.558l-48.379 27.924a37.585 37.585 0 01-18.787 5.019l.005.004zm-.03-186.35a37.064 37.064 0 00-18.531 4.948l-48.378 27.924a37.166 37.166 0 00-18.538 32.109l.006 55.858a37.174 37.174 0 0018.534 32.1l48.4 27.945a37.167 37.167 0 0037.064 0l48.373-27.927a37.172 37.172 0 0018.538-32.11l-.006-55.858a37.173 37.173 0 00-18.534-32.1l-48.398-27.942a37.068 37.068 0 00-18.535-4.951l.005.004z" fill="url(#paint26_linear)"/><path d="M180.354 286.007a41.716 41.716 0 01-20.867-5.574l-37.151-21.444a41.855 41.855 0 01-20.867-36.153l.011-42.956a41.855 41.855 0 0120.858-36.128l37.2-21.487a41.854 41.854 0 0141.743-.005l37.151 21.448a41.85 41.85 0 0120.867 36.154l-.01 42.956a41.855 41.855 0 01-20.858 36.128l-37.2 21.487a41.729 41.729 0 01-20.877 5.574zm.057-168.808a41.2 41.2 0 00-20.616 5.51l-37.2 21.487a41.33 41.33 0 00-20.6 35.679l-.011 42.956a41.33 41.33 0 0020.608 35.7l37.154 21.458a41.329 41.329 0 0041.224-.005l37.2-21.487a41.33 41.33 0 0020.6-35.679l.01-42.956a41.33 41.33 0 00-20.608-35.7l-37.151-21.449a41.214 41.214 0 00-20.61-5.514z" fill="url(#paint27_linear)"/><path d="M199.07 126.072a37.428 37.428 0 00-37.336 0l-37.2 21.487a37.436 37.436 0 00-18.656 32.313l-.01 42.956a37.436 37.436 0 0018.671 32.338l37.151 21.449a37.428 37.428 0 0037.336 0l37.2-21.487a37.433 37.433 0 0018.656-32.313l.01-42.956a37.433 37.433 0 00-18.664-32.336l-37.158-21.451zm2.074-3.592l37.151 21.448a41.479 41.479 0 0120.738 35.929l-.01 42.956a41.48 41.48 0 01-20.729 35.9l-37.2 21.487a41.473 41.473 0 01-41.484.005l-37.14-21.445a41.476 41.476 0 01-20.738-35.929l.01-42.956a41.47 41.47 0 0120.729-35.9l37.2-21.487a41.48 41.48 0 0141.476-.007l-.003-.001z" fill="url(#paint28_linear)"/><path d="M180.354 286.007a41.716 41.716 0 01-20.868-5.574l-37.15-21.448a41.855 41.855 0 01-20.867-36.153l.01-42.956a41.855 41.855 0 0120.858-36.128l37.2-21.487a41.852 41.852 0 0141.743 0l37.151 21.448a41.85 41.85 0 0120.867 36.154l-.01 42.956a41.855 41.855 0 01-20.858 36.128l-37.2 21.487a41.737 41.737 0 01-20.876 5.573zm.056-168.807a41.2 41.2 0 00-20.616 5.509l-37.2 21.487a41.323 41.323 0 00-15.062 15.09 41.322 41.322 0 00-5.538 20.589l-.01 42.956a41.326 41.326 0 0020.608 35.7l37.15 21.448a41.332 41.332 0 0041.225-.005l37.2-21.486a41.333 41.333 0 0020.6-35.68l.01-42.956a41.33 41.33 0 00-20.608-35.7l-37.151-21.449a41.201 41.201 0 00-20.608-5.503zm-.055 164.661a37.578 37.578 0 01-18.794-5.02L124.41 255.39a37.694 37.694 0 01-18.794-32.56l.01-42.956a37.7 37.7 0 0118.784-32.535l37.2-21.487a37.693 37.693 0 0137.595 0l37.15 21.449a37.698 37.698 0 0118.794 32.56l-.01 42.956a37.696 37.696 0 01-18.785 32.537l-37.2 21.487a37.58 37.58 0 01-18.8 5.02h.001zm.055-160.515a37.062 37.062 0 00-18.542 4.955l-37.2 21.487a37.179 37.179 0 00-18.526 32.088l-.01 42.956a37.177 37.177 0 0018.534 32.111l37.15 21.449a37.181 37.181 0 0037.076 0l37.2-21.487a37.166 37.166 0 0018.526-32.089l.01-42.956a37.167 37.167 0 00-18.534-32.111l-37.15-21.449a37.065 37.065 0 00-18.534-4.954z" fill="url(#paint29_linear)"/><path d="M180.092 273.542a41.716 41.716 0 01-20.867-5.574l-25.893-14.95a41.848 41.848 0 01-20.868-36.173l.02-30.054a41.86 41.86 0 0120.841-36.1l26.019-15.047a41.84 41.84 0 0141.76-.015l25.893 14.953a41.843 41.843 0 0120.867 36.174l-.021 30.056a41.85 41.85 0 01-20.841 36.1l-26.017 15.045a41.731 41.731 0 01-20.893 5.585zm.146-142.966a41.206 41.206 0 00-20.634 5.519l-26.019 15.047a41.34 41.34 0 00-20.582 35.65l-.02 30.054a41.327 41.327 0 0020.608 35.719l25.893 14.95a41.324 41.324 0 0041.242-.015l26.018-15.035a41.338 41.338 0 0020.582-35.649l.021-30.056a41.316 41.316 0 00-20.608-35.724l-25.894-14.95a41.199 41.199 0 00-20.607-5.51z" fill="url(#paint30_linear)"/><path d="M198.901 139.448a37.428 37.428 0 00-37.351.013l-26.018 15.047a37.437 37.437 0 00-18.641 32.286l-.021 30.056a37.417 37.417 0 005.008 18.671 37.418 37.418 0 0013.656 13.682l25.894 14.95a37.428 37.428 0 0037.351-.013l26.019-15.046a37.438 37.438 0 0018.641-32.287l.018-30.055a37.427 37.427 0 00-18.664-32.354l-25.894-14.95h.002zm2.072-3.592l25.894 14.95a41.481 41.481 0 0120.738 35.949l-.022 30.056a41.476 41.476 0 01-20.712 35.874l-26.014 15.047a41.481 41.481 0 01-41.5.014l-25.9-14.95a41.476 41.476 0 01-20.738-35.948l.021-30.056a41.481 41.481 0 0120.717-35.874l26.018-15.047a41.481 41.481 0 0141.5-.014l-.002-.001z" fill="url(#paint31_linear)"/><path d="M180.091 273.545a41.716 41.716 0 01-20.867-5.574l-25.894-14.95a41.845 41.845 0 01-20.867-36.173l.021-30.056a41.86 41.86 0 0120.841-36.1l26.019-15.047a41.85 41.85 0 0141.76-.015l25.894 14.95a41.84 41.84 0 0120.867 36.173l-.021 30.056a41.851 41.851 0 01-20.842 36.1l-26.018 15.047a41.733 41.733 0 01-20.893 5.589zm.147-142.969a41.196 41.196 0 00-20.633 5.52l-26.019 15.046a41.338 41.338 0 00-20.583 35.65l-.021 30.056a41.33 41.33 0 0020.608 35.724l25.894 14.95a41.324 41.324 0 0041.242-.015l26.018-15.047a41.335 41.335 0 0020.583-35.65l.021-30.056a41.326 41.326 0 00-20.608-35.724l-25.894-14.95a41.215 41.215 0 00-20.609-5.503l.001-.001zm-.146 138.823a37.578 37.578 0 01-18.794-5.02l-25.894-14.95a37.688 37.688 0 01-18.794-32.578l.021-30.056a37.693 37.693 0 0118.77-32.511l26.019-15.046a37.69 37.69 0 0137.61-.014l25.894 14.95a37.683 37.683 0 0118.793 32.579l-.019 30.055a37.7 37.7 0 01-18.771 32.511l-26.019 15.047a37.585 37.585 0 01-18.817 5.033h.001zm.146-134.677a37.061 37.061 0 00-18.557 4.964l-26.019 15.046a37.18 37.18 0 00-18.512 32.063l-.021 30.056a37.164 37.164 0 0018.534 32.129l25.894 14.95a37.17 37.17 0 0037.092-.013l26.018-15.051a37.17 37.17 0 0018.512-32.062l.021-30.056a37.164 37.164 0 00-18.534-32.129l-25.894-14.95a37.056 37.056 0 00-18.535-4.946l.001-.001z" fill="url(#paint32_linear)"/><path d="M180.336 260.044a41.722 41.722 0 01-20.866-5.574l-14.628-8.445a41.843 41.843 0 01-20.866-36.2l.028-17.166a41.868 41.868 0 0120.814-36.057l14.849-8.6a41.849 41.849 0 0141.786-.031l14.628 8.445a41.843 41.843 0 0120.866 36.2l-.023 17.161a41.872 41.872 0 01-5.608 20.803 41.872 41.872 0 01-15.212 15.259l-14.85 8.6a41.727 41.727 0 01-20.918 5.605zm.251-117.127a41.204 41.204 0 00-20.66 5.535l-14.849 8.6a41.347 41.347 0 00-20.559 35.609l-.024 17.163a41.326 41.326 0 0020.609 35.752l14.628 8.445a41.316 41.316 0 0041.266-.031l14.85-8.6a41.342 41.342 0 0020.556-35.609l.023-17.161a41.325 41.325 0 00-20.606-35.753l-14.627-8.445a41.203 41.203 0 00-20.606-5.505h-.001z" fill="url(#paint33_linear)"/><path d="M199.249 151.789a37.428 37.428 0 00-37.372.026l-14.85 8.6a37.451 37.451 0 00-18.619 32.25l-.024 17.161a37.43 37.43 0 0018.664 32.378l14.628 8.446a37.428 37.428 0 0037.372-.026l14.85-8.6a37.444 37.444 0 0018.619-32.25l.024-17.161a37.43 37.43 0 00-18.664-32.378l-14.628-8.445v-.001zm2.074-3.591l14.628 8.445a41.472 41.472 0 0120.738 35.976l-.027 17.159a41.484 41.484 0 01-5.556 20.681 41.481 41.481 0 01-15.132 15.152l-14.85 8.6a41.478 41.478 0 01-41.525.029l-14.628-8.446a41.475 41.475 0 01-20.738-35.976l.024-17.161a41.468 41.468 0 015.557-20.68 41.466 41.466 0 0115.131-15.153l14.85-8.6a41.48 41.48 0 0120.76-5.586 41.484 41.484 0 0120.768 5.559v.001z" fill="url(#paint34_linear)"/><path d="M180.339 260.041a41.727 41.727 0 01-20.867-5.575l-14.628-8.445a41.846 41.846 0 01-20.867-36.2l.026-17.162a41.86 41.86 0 0120.815-36.056l14.85-8.6a41.841 41.841 0 0141.784-.029l14.628 8.445a41.846 41.846 0 0120.867 36.2l-.024 17.161a41.861 41.861 0 01-20.82 36.057l-14.85 8.6a41.721 41.721 0 01-20.914 5.604zm.247-117.125a41.198 41.198 0 00-20.658 5.534l-14.85 8.6a41.345 41.345 0 00-20.558 35.609l-.024 17.161a41.325 41.325 0 0020.607 35.753l14.628 8.445a41.322 41.322 0 0041.265-.029l14.85-8.6a41.352 41.352 0 0020.557-35.61l.024-17.161a41.326 41.326 0 00-20.608-35.751l-14.628-8.445a41.2 41.2 0 00-20.605-5.506zm-.246 112.979a37.569 37.569 0 01-18.794-5.021l-14.628-8.446a37.69 37.69 0 01-18.794-32.6l.024-17.161a37.71 37.71 0 0118.748-32.474l14.85-8.6a37.687 37.687 0 0137.632-.026l14.625 8.443a37.69 37.69 0 0118.794 32.6l-.024 17.161a37.697 37.697 0 01-18.748 32.473l-14.85 8.6a37.59 37.59 0 01-18.836 5.052l.001-.001zm.246-108.834a37.064 37.064 0 00-18.583 4.978l-14.85 8.6a37.184 37.184 0 00-18.49 32.026l-.024 17.161a37.168 37.168 0 0018.534 32.153l14.628 8.446a37.163 37.163 0 0037.113-.025l14.85-8.6a37.185 37.185 0 0018.49-32.026l.024-17.161a37.165 37.165 0 00-18.534-32.154l-14.628-8.445a37.061 37.061 0 00-18.53-4.952v-.001z" fill="url(#paint35_linear)"/><path d="M180.895 248.442a33.426 33.426 0 01-16.721-4.466l-11.76-6.79a33.53 33.53 0 01-16.72-28.956v-13.559a33.532 33.532 0 0116.723-28.965l11.745-6.779a33.535 33.535 0 0133.436 0l11.76 6.79a33.54 33.54 0 0116.719 28.956v13.561a33.532 33.532 0 01-16.723 28.964l-11.745 6.779a33.43 33.43 0 01-16.714 4.465zm-.018-93.461a32.907 32.907 0 00-16.458 4.395l-11.745 6.779a33.007 33.007 0 00-16.464 28.516v13.559a33.018 33.018 0 0016.461 28.507l11.76 6.789a33.018 33.018 0 0032.916 0l11.745-6.779a33.015 33.015 0 0016.464-28.516V194.67a33.007 33.007 0 00-16.46-28.506l-11.76-6.79a32.92 32.92 0 00-16.458-4.393h-.001z" fill="url(#paint36_linear)"/><path d="M195.393 162.745a29.111 29.111 0 00-29.03 0l-11.745 6.779a29.11 29.11 0 00-14.518 25.147v13.561a29.117 29.117 0 0014.516 25.14l11.76 6.79a29.111 29.111 0 0029.03 0l11.745-6.779a29.113 29.113 0 0014.519-25.148v-13.564a29.117 29.117 0 00-14.516-25.14l-11.76-6.79-.001.004zm2.075-3.596l11.76 6.789a33.181 33.181 0 0116.59 28.732v13.561a33.182 33.182 0 01-16.593 28.74l-11.745 6.784a33.177 33.177 0 01-33.177 0l-11.76-6.79a33.179 33.179 0 01-16.59-28.731v-13.561a33.183 33.183 0 0116.593-28.74l11.745-6.779a33.181 33.181 0 0133.176-.001l.001-.004z" fill="url(#paint37_linear)"/><path d="M180.894 248.443a33.422 33.422 0 01-16.72-4.466l-11.76-6.79a33.533 33.533 0 01-16.72-28.955v-13.561a33.532 33.532 0 0116.723-28.966l11.745-6.779a33.535 33.535 0 0133.436 0l11.76 6.79a33.53 33.53 0 0116.72 28.956v13.561a33.532 33.532 0 01-16.723 28.965l-11.745 6.779a33.43 33.43 0 01-16.716 4.466zm-.016-93.462a32.907 32.907 0 00-16.458 4.395l-11.745 6.779a33.007 33.007 0 00-16.464 28.516v13.561a33.014 33.014 0 0016.461 28.507l11.76 6.789a33.009 33.009 0 0032.917 0l11.745-6.779a33.007 33.007 0 0016.464-28.516v-13.561a33.007 33.007 0 00-16.461-28.507l-11.76-6.79a32.923 32.923 0 00-16.459-4.394zm.016 89.316a29.284 29.284 0 01-14.646-3.912l-11.76-6.789a29.379 29.379 0 01-14.646-25.364v-13.561a29.374 29.374 0 0114.647-25.373l11.745-6.779a29.377 29.377 0 0129.289 0l11.76 6.79a29.379 29.379 0 0114.646 25.364v13.561a29.375 29.375 0 01-14.649 25.372l-11.745 6.779a29.277 29.277 0 01-14.641 3.913v-.001zm-.017-85.17a28.772 28.772 0 00-14.384 3.841l-11.745 6.779a28.853 28.853 0 00-14.389 24.924v13.561a28.853 28.853 0 0014.387 24.915l11.76 6.79a28.854 28.854 0 0028.77 0l11.745-6.779a28.853 28.853 0 0014.39-24.924v-13.561a28.854 28.854 0 00-14.39-24.914l-11.76-6.79a28.76 28.76 0 00-14.384-3.842z" fill="url(#paint38_linear)"/></g><defs><linearGradient id="paint0_linear" x1=".496" y1="201.832" x2="429.976" y2="201.832" gradientUnits="userSpaceOnUse"><stop stop-color="#4B18A9"/><stop offset="1" stop-color="#923BFE"/></linearGradient><linearGradient id="paint1_linear" x1=".761" y1="201.834" x2="429.621" y2="201.834" gradientUnits="userSpaceOnUse"><stop stop-color="#4B18A9"/><stop offset="1" stop-color="#923BFE"/></linearGradient><linearGradient id="paint2_linear" x1=".502" y1="201.832" x2="429.98" y2="201.832" gradientUnits="userSpaceOnUse"><stop stop-color="#4B18A9"/><stop offset="1" stop-color="#923BFE"/></linearGradient><linearGradient id="paint3_linear" x1="11.516" y1="201.772" x2="414.218" y2="201.772" gradientUnits="userSpaceOnUse"><stop stop-color="#4B18A9"/><stop offset="1" stop-color="#923BFE"/></linearGradient><linearGradient id="paint4_linear" x1="11.775" y1="201.772" x2="413.858" y2="201.772" gradientUnits="userSpaceOnUse"><stop stop-color="#4B18A9"/><stop offset="1" stop-color="#923BFE"/></linearGradient><linearGradient id="paint5_linear" x1="11.516" y1="201.774" x2="414.218" y2="201.774" gradientUnits="userSpaceOnUse"><stop stop-color="#4B18A9"/><stop offset="1" stop-color="#923BFE"/></linearGradient><linearGradient id="paint6_linear" x1="22.952" y1="201.485" x2="398.799" y2="201.485" gradientUnits="userSpaceOnUse"><stop stop-color="#4B18A9"/><stop offset="1" stop-color="#923BFE"/></linearGradient><linearGradient id="paint7_linear" x1="23.211" y1="201.485" x2="398.442" y2="201.485" gradientUnits="userSpaceOnUse"><stop stop-color="#4B18A9"/><stop offset="1" stop-color="#923BFE"/></linearGradient><linearGradient id="paint8_linear" x1="22.952" y1="201.485" x2="398.801" y2="201.485" gradientUnits="userSpaceOnUse"><stop stop-color="#4B18A9"/><stop offset="1" stop-color="#923BFE"/></linearGradient><linearGradient id="paint9_linear" x1="34.382" y1="201.714" x2="383.397" y2="201.714" gradientUnits="userSpaceOnUse"><stop stop-color="#4B18A9"/><stop offset="1" stop-color="#923BFE"/></linearGradient><linearGradient id="paint10_linear" x1="34.64" y1="201.718" x2="383.037" y2="201.718" gradientUnits="userSpaceOnUse"><stop stop-color="#4B18A9"/><stop offset="1" stop-color="#923BFE"/></linearGradient><linearGradient id="paint11_linear" x1="34.382" y1="201.714" x2="383.397" y2="201.714" gradientUnits="userSpaceOnUse"><stop stop-color="#4B18A9"/><stop offset="1" stop-color="#923BFE"/></linearGradient><linearGradient id="paint12_linear" x1="45.365" y1="201.658" x2="367.573" y2="201.658" gradientUnits="userSpaceOnUse"><stop stop-color="#4B18A9"/><stop offset="1" stop-color="#923BFE"/></linearGradient><linearGradient id="paint13_linear" x1="45.626" y1="201.656" x2="367.221" y2="201.656" gradientUnits="userSpaceOnUse"><stop stop-color="#4B18A9"/><stop offset="1" stop-color="#923BFE"/></linearGradient><linearGradient id="paint14_linear" x1="45.366" y1="201.658" x2="367.575" y2="201.658" gradientUnits="userSpaceOnUse"><stop stop-color="#4B18A9"/><stop offset="1" stop-color="#923BFE"/></linearGradient><linearGradient id="paint15_linear" x1="56.903" y1="201.595" x2="352.326" y2="201.595" gradientUnits="userSpaceOnUse"><stop stop-color="#4B18A9"/><stop offset="1" stop-color="#923BFE"/></linearGradient><linearGradient id="paint16_linear" x1="57.16" y1="201.594" x2="351.961" y2="201.594" gradientUnits="userSpaceOnUse"><stop stop-color="#4B18A9"/><stop offset="1" stop-color="#923BFE"/></linearGradient><linearGradient id="paint17_linear" x1="56.902" y1="201.594" x2="352.325" y2="201.594" gradientUnits="userSpaceOnUse"><stop stop-color="#4B18A9"/><stop offset="1" stop-color="#923BFE"/></linearGradient><linearGradient id="paint18_linear" x1="67.923" y1="201.531" x2="336.546" y2="201.531" gradientUnits="userSpaceOnUse"><stop stop-color="#4B18A9"/><stop offset="1" stop-color="#923BFE"/></linearGradient><linearGradient id="paint19_linear" x1="68.181" y1="201.53" x2="336.191" y2="201.53" gradientUnits="userSpaceOnUse"><stop stop-color="#4B18A9"/><stop offset="1" stop-color="#923BFE"/></linearGradient><linearGradient id="paint20_linear" x1="67.922" y1="201.531" x2="336.546" y2="201.531" gradientUnits="userSpaceOnUse"><stop stop-color="#4B18A9"/><stop offset="1" stop-color="#923BFE"/></linearGradient><linearGradient id="paint21_linear" x1="78.988" y1="201.468" x2="320.821" y2="201.468" gradientUnits="userSpaceOnUse"><stop stop-color="#4B18A9"/><stop offset="1" stop-color="#923BFE"/></linearGradient><linearGradient id="paint22_linear" x1="79.246" y1="201.467" x2="320.461" y2="201.467" gradientUnits="userSpaceOnUse"><stop stop-color="#4B18A9"/><stop offset="1" stop-color="#923BFE"/></linearGradient><linearGradient id="paint23_linear" x1="78.988" y1="201.468" x2="320.821" y2="201.468" gradientUnits="userSpaceOnUse"><stop stop-color="#4B18A9"/><stop offset="1" stop-color="#923BFE"/></linearGradient><linearGradient id="paint24_linear" x1="90.006" y1="201.405" x2="305.056" y2="201.405" gradientUnits="userSpaceOnUse"><stop stop-color="#4B18A9"/><stop offset="1" stop-color="#923BFE"/></linearGradient><linearGradient id="paint25_linear" x1="90.267" y1="201.407" x2="304.692" y2="201.407" gradientUnits="userSpaceOnUse"><stop stop-color="#4B18A9"/><stop offset="1" stop-color="#923BFE"/></linearGradient><linearGradient id="paint26_linear" x1="90.008" y1="201.406" x2="305.051" y2="201.406" gradientUnits="userSpaceOnUse"><stop stop-color="#4B18A9"/><stop offset="1" stop-color="#923BFE"/></linearGradient><linearGradient id="paint27_linear" x1="101.469" y1="201.347" x2="289.76" y2="201.347" gradientUnits="userSpaceOnUse"><stop stop-color="#4B18A9"/><stop offset="1" stop-color="#923BFE"/></linearGradient><linearGradient id="paint28_linear" x1="101.732" y1="201.345" x2="289.392" y2="201.345" gradientUnits="userSpaceOnUse"><stop stop-color="#4B18A9"/><stop offset="1" stop-color="#923BFE"/></linearGradient><linearGradient id="paint29_linear" x1="101.469" y1="201.346" x2="289.759" y2="201.346" gradientUnits="userSpaceOnUse"><stop stop-color="#4B18A9"/><stop offset="1" stop-color="#923BFE"/></linearGradient><linearGradient id="paint30_linear" x1="112.464" y1="201.798" x2="273.996" y2="201.798" gradientUnits="userSpaceOnUse"><stop stop-color="#4B18A9"/><stop offset="1" stop-color="#923BFE"/></linearGradient><linearGradient id="paint31_linear" x1="112.719" y1="201.801" x2="273.638" y2="201.801" gradientUnits="userSpaceOnUse"><stop stop-color="#4B18A9"/><stop offset="1" stop-color="#923BFE"/></linearGradient><linearGradient id="paint32_linear" x1="112.463" y1="201.801" x2="273.998" y2="201.801" gradientUnits="userSpaceOnUse"><stop stop-color="#4B18A9"/><stop offset="1" stop-color="#923BFE"/></linearGradient><linearGradient id="paint33_linear" x1="123.976" y1="201.221" x2="258.75" y2="201.221" gradientUnits="userSpaceOnUse"><stop stop-color="#4B18A9"/><stop offset="1" stop-color="#923BFE"/></linearGradient><linearGradient id="paint34_linear" x1="124.233" y1="201.217" x2="258.393" y2="201.217" gradientUnits="userSpaceOnUse"><stop stop-color="#4B18A9"/><stop offset="1" stop-color="#923BFE"/></linearGradient><linearGradient id="paint35_linear" x1="123.977" y1="201.22" x2="258.75" y2="201.22" gradientUnits="userSpaceOnUse"><stop stop-color="#4B18A9"/><stop offset="1" stop-color="#923BFE"/></linearGradient><linearGradient id="paint36_linear" x1="135.694" y1="201.452" x2="243.521" y2="201.452" gradientUnits="userSpaceOnUse"><stop stop-color="#4B18A9"/><stop offset="1" stop-color="#923BFE"/></linearGradient><linearGradient id="paint37_linear" x1="135.953" y1="201.454" x2="243.162" y2="201.454" gradientUnits="userSpaceOnUse"><stop stop-color="#4B18A9"/><stop offset="1" stop-color="#923BFE"/></linearGradient><linearGradient id="paint38_linear" x1="135.694" y1="201.452" x2="243.522" y2="201.452" gradientUnits="userSpaceOnUse"><stop stop-color="#4B18A9"/><stop offset="1" stop-color="#923BFE"/></linearGradient><clipPath id="clip0"><path fill="#fff" d="M0 0h361v403.668H0z"/></clipPath></defs></svg>