<svg width="48" height="48" fill="none" xmlns="http://www.w3.org/2000/svg"><path d="M24 48c13.255 0 24-10.745 24-24S37.255 0 24 0 0 10.745 0 24s10.745 24 24 24z" fill="#F6F3FF"/><path d="M24.002 19a5 5 0 105 5 4.99 4.99 0 00-5-5zm0 8.25a3.25 3.25 0 110-6.5 3.25 3.25 0 01.003 6.5h-.003zm6.369-8.454a1.166 1.166 0 11-2.332 0 1.166 1.166 0 012.332 0zm3.311 1.184a5.772 5.772 0 00-1.575-4.086 5.808 5.808 0 00-4.085-1.575c-1.61-.09-6.434-.09-8.044 0a5.8 5.8 0 00-4.085 1.57 5.79 5.79 0 00-1.575 4.086c-.091 1.61-.091 6.435 0 8.045a5.772 5.772 0 001.575 4.086 5.814 5.814 0 004.085 1.575c1.61.091 6.434.091 8.044 0a5.769 5.769 0 004.085-1.575 5.81 5.81 0 001.575-4.086c.091-1.61.091-6.43 0-8.04zm-2.079 9.768a3.289 3.289 0 01-1.853 1.854c-1.283.51-4.328.392-5.747.392-1.419 0-4.469.112-5.748-.393a3.289 3.289 0 01-1.853-1.854c-.509-1.284-.392-4.329-.392-5.748 0-1.419-.113-4.469.392-5.748a3.288 3.288 0 011.853-1.853c1.283-.509 4.328-.392 5.747-.392 1.419 0 4.468-.113 5.747.392a3.29 3.29 0 011.853 1.854c.509 1.284.392 4.33.392 5.748 0 1.42.117 4.468-.392 5.748h.001z" fill="#4C18AA"/></svg>