<svg width="48" height="48" fill="none" xmlns="http://www.w3.org/2000/svg"><path d="M24 48c13.255 0 24-10.745 24-24S37.255 0 24 0 0 10.745 0 24s10.745 24 24 24z" fill="#F6F3FF"/><path d="M34.78 18.847a2.758 2.758 0 00-1.989-1.9C31.036 16.5 24 16.5 24 16.5s-7.036 0-8.791.449a2.758 2.758 0 00-1.989 1.9 26.7 26.7 0 00-.47 5.168 26.7 26.7 0 00.47 5.168 2.72 2.72 0 001.989 1.868c1.755.449 8.791.449 8.791.449s7.036 0 8.791-.449a2.72 2.72 0 001.989-1.868 26.7 26.7 0 00.47-5.168 26.705 26.705 0 00-.47-5.17zm-13.08 8.34v-6.344l5.881 3.172-5.881 3.172z" fill="#4C18AA"/></svg>