<svg width="48" height="48" fill="none" xmlns="http://www.w3.org/2000/svg"><path d="M24 48c13.255 0 24-10.745 24-24S37.255 0 24 0 0 10.745 0 24s10.745 24 24 24z" fill="#F6F3FF"/><path d="M34.704 18.165c.165-.527 0-.915-.793-.915h-2.624a1.127 1.127 0 00-1.141.7 20.583 20.583 0 01-3.226 5.084c-.61.578-.891.764-1.225.764-.165 0-.419-.186-.419-.713v-4.92c0-.633-.187-.915-.74-.915h-4.125a.622.622 0 00-.668.57c0 .6.945.738 1.043 2.426v3.662c0 .8-.151.95-.486.95-.891 0-3.056-3.1-4.34-6.64-.258-.69-.517-.968-1.185-.968h-2.624c-.749 0-.9.333-.9.7 0 .658.891 3.928 4.148 8.248a10.348 10.348 0 008.006 4.548c1.671 0 1.876-.354 1.876-.966 0-2.818-.151-3.084.686-3.084.388 0 1.056.186 2.615 1.607 1.782 1.688 2.076 2.443 3.074 2.443h2.624c.749 0 1.127-.354.909-1.055-.5-1.472-3.872-4.5-4.023-4.7-.388-.472-.276-.683 0-1.105 0 0 3.208-4.274 3.538-5.72z" fill="#4C18AA"/></svg>