<svg width="14" height="14" fill="none" xmlns="http://www.w3.org/2000/svg"><g clip-path="url(#clip0)"><path d="M13.6 9.893l-3.062-1.312a.656.656 0 00-.766.189l-1.356 1.657a10.135 10.135 0 01-4.845-4.846l1.657-1.356a.655.655 0 00.189-.766L4.1.4a.661.661 0 00-.752-.38L.509.673a.656.656 0 00-.509.64c.004.83.085 1.66.241 2.475A12.611 12.611 0 0012.688 14a.655.655 0 00.64-.509l.656-2.844a.664.664 0 00-.384-.754z" fill="#A6ABBD"/></g><defs><clipPath id="clip0"><path fill="#fff" d="M0 0h14v14H0z"/></clipPath></defs></svg>