<svg width="16" height="16" fill="none" xmlns="http://www.w3.org/2000/svg"><g clip-path="url(#clip0)"><path d="M8.005 3.897a4.1 4.1 0 100 8.2 4.1 4.1 0 000-8.2zm0 6.765a2.666 2.666 0 110-5.333 2.666 2.666 0 010 5.333zm5.226-6.935a.957.957 0 11-.281-.675.953.953 0 01.277.677l.004-.002zm2.716.971a4.734 4.734 0 00-1.292-3.352A4.765 4.765 0 0011.303.054c-1.321-.075-5.279-.075-6.6 0a4.758 4.758 0 00-3.355 1.29A4.75 4.75 0 00.056 4.696c-.075 1.321-.075 5.279 0 6.6a4.734 4.734 0 001.292 3.352A4.771 4.771 0 004.7 15.94c1.321.075 5.279.075 6.6 0a4.734 4.734 0 003.352-1.292 4.765 4.765 0 001.292-3.352c.075-1.321.075-5.276 0-6.6l.003.002zm-1.706 8.013a2.7 2.7 0 01-1.521 1.521c-1.053.418-3.552.321-4.715.321-1.163 0-3.666.093-4.715-.321a2.7 2.7 0 01-1.521-1.521c-.418-1.053-.321-3.552-.321-4.715 0-1.163-.093-3.666.321-4.715a2.7 2.7 0 011.517-1.519c1.053-.418 3.552-.321 4.719-.321 1.167 0 3.666-.093 4.715.321a2.7 2.7 0 011.521 1.521c.418 1.053.321 3.552.321 4.715 0 1.163.093 3.664-.325 4.715l.004-.002z" fill="#4C18AA"/></g><defs><clipPath id="clip0"><path fill="#fff" d="M0 0h16v15.996H0z"/></clipPath></defs></svg>