<svg width="24" height="24" fill="none" xmlns="http://www.w3.org/2000/svg"><g clip-path="url(#clip0)"><path d="M11.998 24A11.996 11.996 0 01.912 16.592 11.997 11.997 0 013.514 3.516 11.997 11.997 0 0123.998 12a11.914 11.914 0 01-12 12zm-5.52-8.783v1.117h1.6V18h2.076v-1.664h3.522V15.22h-3.522v-.912h2.53a5.63 5.63 0 003.494-.963 3.72 3.72 0 00.93-4.323 3.72 3.72 0 00-.93-1.26 5.623 5.623 0 00-3.495-.96H8.079v8.418h-1.6v-.004zm6.188-2.6h-2.512V8.555h2.512a3.31 3.31 0 011.988.52 1.775 1.775 0 01.684 1.5 1.813 1.813 0 01-.7 1.51 3.166 3.166 0 01-1.97.536l-.002-.004z" fill="#fff"/></g><defs><clipPath id="clip0"><path fill="#fff" d="M0 0h24v24H0z"/></clipPath></defs></svg>