<svg width="18" height="18" fill="none" xmlns="http://www.w3.org/2000/svg"><g clip-path="url(#clip0)"><path d="M9 0a9 9 0 100 18A9 9 0 009 0zm0 3.483a3.194 3.194 0 110 6.388 3.194 3.194 0 010-6.388zm0 12.484a6.953 6.953 0 01-5.317-2.475 4.046 4.046 0 013.575-2.17c.088 0 .174.014.258.04.478.16.98.245 1.484.25a4.787 4.787 0 001.484-.25.886.886 0 01.258-.04 4.046 4.046 0 013.575 2.17A6.954 6.954 0 019 15.967z" fill="#4C18AA"/></g><defs><clipPath id="clip0"><path fill="#fff" d="M0 0h18v18H0z"/></clipPath></defs></svg>